<?xml version="1.0" encoding="utf-8"?>
<!-- Generator: Adobe Illustrator 25.0.1, SVG Export Plug-In . SVG Version: 6.00 Build 0)  -->
<svg version="1.1" id="Layer_1" xmlns="http://www.w3.org/2000/svg" xmlns:xlink="http://www.w3.org/1999/xlink" x="0px" y="0px"
	 viewBox="0 0 15.5 1.2" style="enable-background:new 0 0 15.5 1.2;" xml:space="preserve">
<style type="text/css">
	.st0{fill-rule:evenodd;clip-rule:evenodd;}
</style>
<path class="st0" d="M6,0.6c0-0.3,0.2-0.5,0.5-0.5H9c0.3,0,0.5,0.2,0.5,0.5S9.3,1.1,9,1.1H6.5C6.2,1.1,6,0.9,6,0.6z M0.8,0.6
	c0-0.3,0.2-0.5,0.5-0.5h2.5c0.3,0,0.5,0.2,0.5,0.5S4.1,1.1,3.8,1.1H1.3C1.1,1.1,0.8,0.9,0.8,0.6z M11.2,0.6c0-0.3,0.2-0.5,0.5-0.5
	h2.5c0.3,0,0.5,0.2,0.5,0.5s-0.2,0.5-0.5,0.5h-2.5C11.4,1.1,11.2,0.9,11.2,0.6z"/>
</svg>
